<svg height='100px' width='100px'  fill="#ffffff" xmlns:dc="http://purl.org/dc/elements/1.1/" xmlns:cc="http://creativecommons.org/ns#" xmlns:rdf="http://www.w3.org/1999/02/22-rdf-syntax-ns#" xmlns:svg="http://www.w3.org/2000/svg" xmlns="http://www.w3.org/2000/svg" xmlns:sodipodi="http://sodipodi.sourceforge.net/DTD/sodipodi-0.dtd" xmlns:inkscape="http://www.inkscape.org/namespaces/inkscape" viewBox="0 0 8.4666665 8.4666669" version="1.1" x="0px" y="0px"><g transform="translate(0,-288.53333)"><path style="color:#000000;font-style:normal;font-variant:normal;font-weight:normal;font-stretch:normal;font-size:medium;line-height:normal;font-family:sans-serif;font-variant-ligatures:normal;font-variant-position:normal;font-variant-caps:normal;font-variant-numeric:normal;font-variant-alternates:normal;font-feature-settings:normal;text-indent:0;text-align:start;text-decoration:none;text-decoration-line:none;text-decoration-style:solid;text-decoration-color:#000000;letter-spacing:normal;word-spacing:normal;text-transform:none;writing-mode:lr-tb;direction:ltr;text-orientation:mixed;dominant-baseline:auto;baseline-shift:baseline;text-anchor:start;white-space:normal;shape-padding:0;clip-rule:nonzero;display:inline;overflow:visible;visibility:visible;opacity:1;isolation:auto;mix-blend-mode:normal;color-interpolation:sRGB;color-interpolation-filters:linearRGB;solid-color:#000000;solid-opacity:1;vector-effect:none;fill:#ffffff;fill-opacity:1;fill-rule:nonzero;stroke:none;stroke-width:2;stroke-linecap:butt;stroke-linejoin:round;stroke-miterlimit:4;stroke-dasharray:none;stroke-dashoffset:0;stroke-opacity:1;color-rendering:auto;image-rendering:auto;shape-rendering:auto;text-rendering:auto;enable-background:accumulate" d="M 7.890625 3.0039062 C 5.8472813 3.0760952 4.4512642 5.2082093 5.2109375 7.1074219 L 8.7695312 16.003906 L 5.2109375 24.890625 C 4.7157627 26.127589 5.1231437 27.438995 5.9648438 28.212891 C 6.8065445 28.986749 8.1542294 29.281503 9.3457031 28.685547 L 29.34375 18.683594 C 31.499594 17.605257 31.500093 14.394176 29.34375 13.316406 L 9.3457031 3.3222656 C 8.902541 3.1004074 8.400382 2.9857645 7.890625 3.0039062 z M 7.9648438 4.9960938 C 8.1254737 4.9885347 8.2885982 5.0306975 8.4453125 5.1074219 L 28.443359 15.103516 C 29.239637 15.5015 29.239699 16.49816 28.443359 16.896484 L 8.4453125 26.898438 C 7.9901497 27.125965 7.6166901 27.00732 7.3222656 26.736328 C 7.0278404 26.465714 6.8831921 26.101234 7.0722656 25.628906 L 10.527344 17 L 15.996094 17 A 1.000252 1.000252 0 1 0 15.996094 15 L 10.523438 15 L 7.0722656 6.3691406 C 6.8046184 5.7000131 7.2438233 5.023004 7.9648438 4.9960938 z M 2 10.998047 A 1.000252 1.000252 0 1 0 2 13 L 4.0019531 13 A 1.000252 1.000252 0 1 0 4.0019531 10.998047 L 2 10.998047 z M 2 15 A 1.000252 1.000252 0 1 0 2 17 L 6.0019531 17 A 1.000252 1.000252 0 1 0 6.0019531 15 L 2 15 z M 1.8964844 19 A 1.0015669 1.0015669 0 0 0 2 21.001953 L 4.0019531 21.001953 A 1.0002331 1.0002331 0 0 0 4.0019531 19 L 2 19 A 1.0001001 1.0001001 0 0 0 1.8964844 19 z " transform="matrix(0.26458333,0,0,0.26458333,0,288.53333)"></path></g></svg>